<?xml version="1.0" encoding="UTF-8"?>
<svg id="Layer_2" data-name="Layer 2" xmlns="http://www.w3.org/2000/svg" viewBox="0 0 1944.56 1952.36">
  <defs>
    <style>
      .cls-1 {
        fill: #f15d22;
      }

      .cls-2 {
        fill: #b64326;
      }
    </style>
  </defs>
  <g id="Layer_1-2" data-name="Layer 1">
    <g>
      <path class="cls-2" d="M926.66,44.33v1863.7c0,1.02-.03,2.03-.09,3.03-1.45,25.22-24.58,43.7-49.7,41.04C384.01,1899.88,0,1482.89,0,976.18S384.01,52.47,876.87.25c25.12-2.66,48.24,15.82,49.7,41.04.06,1,.09,2.01.09,3.03Z"/>
      <path class="cls-1" d="M1526.06,159.09c-108.28-73.25-231.89-125.55-365.03-151.07-72.21-13.84-139.14,41.68-139.14,115.21v687.34c0,18.7,22.6,28.06,35.82,14.84l486-485.99c52.24-52.24,43.55-138.93-17.65-180.33ZM1114.52,700.69l-40.58,30.03c-3.37,2.49-8.03-.48-7.2-4.59l10.07-49.47c3.35-16.46,22.16-24.45,36.33-15.42,14.17,9.03,14.88,29.45,1.38,39.44Z"/>
      <path class="cls-1" d="M1543.71,1612.94l-486-485.99c-13.22-13.22-35.82-3.86-35.82,14.84v687.34c0,73.53,66.93,129.05,139.14,115.21,133.14-25.52,256.75-77.82,365.03-151.07,61.2-41.4,69.89-128.09,17.65-180.33ZM1090.58,1274.72c-15.29,6.95-32.8-3.59-33.81-20.35l-3.04-50.39c-.25-4.18,4.78-6.47,7.77-3.53l35.98,35.42c11.97,11.78,8.4,31.91-6.89,38.86Z"/>
      <path class="cls-1" d="M1827.23,1023.79h-687.34c-18.7,0-28.06,22.6-14.84,35.82l486,486c52.24,52.24,138.93,43.55,180.33-17.65,73.25-108.28,125.55-231.89,151.07-365.03,13.84-72.21-41.68-139.14-115.21-139.14ZM1266.4,1104.37h0c-6.87,15.33-26.97,19.01-38.82,7.1l-35.61-35.78c-2.96-2.97-.69-8.02,3.49-7.79l50.41,2.77c16.77.92,27.41,18.37,20.54,33.7Z"/>
      <path class="cls-1" d="M1942.44,789.43c-25.52-133.14-77.82-256.75-151.07-365.03-41.4-61.2-128.09-69.89-180.33-17.65l-486,486c-13.22,13.22-3.86,35.82,14.84,35.82h687.34c73.53,0,129.05-66.93,115.21-139.14ZM1243.4,896.43l-49.93-7.46c-4.14-.62-5.34-6.02-1.85-8.33l42.1-27.86c14.01-9.27,32.96-1.61,36.59,14.79s-10.3,31.35-26.92,28.87Z"/>
    </g>
  </g>
</svg>