<?xml version="1.0" encoding="UTF-8"?>
<svg id="Layer_2" data-name="Layer 2" xmlns="http://www.w3.org/2000/svg" viewBox="0 0 371.98 75.7">
  <defs>
    <style>
      .cls-1 {
        fill: #f4f4f5;
      }
    </style>
  </defs>
  <g id="Layer_1-2" data-name="Layer 1">
    <g>
      <path class="cls-1" d="M20.24,9.88c2.55-4.93,8.87-6.45,13.99-5.93,10.99,1.12,21.99,2.13,33,3.04,3.43.14,10.12,2.5,8.1,7.1-1.47,3.36-3.21,6.85-4.82,10.34-7.37-.29-14.74-.62-22.11-.96.62-1.42.93-2.13,1.55-3.53.52-1.18-.64-2.23-2.58-2.35-1.54-.1-2.32-.15-3.86-.25-1.94-.13-3.94.75-4.46,1.96-1.24,2.89-1.86,4.35-3.11,7.29-.52,1.23.64,2.3,2.58,2.36,6.14.21,12.29.41,18.43.6,3.49-.04,10.08,2,8.09,6.87-3.26,7.28-6.47,14.59-9.63,21.92-2.67,4.89-8.73,7.22-14.01,7.62-10.99.71-21.98,1.48-32.96,2.32-4.25.56-10-2.05-8.07-7.26,1.59-4.28,3.18-8.63,4.8-12.93,7.35-.13,14.7-.26,22.06-.38-.62,1.54-.93,2.32-1.55,3.87-.52,1.3.64,2.32,2.57,2.25,1.54-.05,2.31-.08,3.86-.13,1.94-.06,3.94-1.15,4.46-2.41,1.24-3.02,1.86-4.52,3.1-7.49.52-1.24-.64-2.25-2.58-2.25-6.14,0-12.27-.02-18.41-.02-4.17.18-10-2.54-8.07-7.67,3.14-8.02,6.34-16.02,9.61-24Z"/>
      <path class="cls-1" d="M136.24,16.79c-7.79,15.18-15.45,30.42-22.91,45.76-9.36,4.21-18.62,8.58-27.8,13.15,3.58-7.9,7.23-15.77,10.95-23.61,4.77-10.01,9.62-19.98,14.54-29.91.41-.83-.51-1.55-2.05-1.6-2.13-.07-3.2-.11-5.33-.19-1.54-.06-3.14.58-3.55,1.42-4.68,9.59-9.28,19.21-13.79,28.88-.41.89.51,1.59,2.05,1.56,3.25-.07,4.88-.1,8.13-.16-3.62,3.79-7.21,7.63-10.75,11.5-5.51.24-11.01.5-16.52.78-3.44.36-10.17-1.29-8.09-6.26,6.42-14.66,13.06-29.22,19.91-43.68,2.81-4.53,9.1-5.75,14.03-5.46,11.02.66,22.04,1.22,33.08,1.67,6.09.24,9.74,2.97,8.11,6.14Z"/>
      <path class="cls-1" d="M167.72,11.67c-6.66,12.74-13.29,25.49-19.85,38.28-.41.81.51,1.46,2.05,1.45,2.13-.02,3.2-.02,5.34-.04,1.54,0,3.14-.67,3.55-1.47,6.58-12.73,13.21-25.43,19.85-38.12,7.39.03,14.78.02,22.17-.06-7.62,14.69-15.28,29.35-22.93,44.02-2.97,4.32-9.13,5.72-14.05,5.79-11.03.12-22.07.3-33.1.56-6.09.15-9.74-2.44-8.11-5.74,7.5-15.11,15.15-30.13,22.92-45.1,7.39.2,14.77.35,22.16.44Z"/>
      <path class="cls-1" d="M262.58,9.79c-2.12,4.43-3.17,6.63-5.29,10.99-11.03.34-22.06.61-33.09.82-2,3.94-3.01,5.9-5.01,9.8,7.39-.06,14.77-.13,22.16-.23-2.12,4.22-3.17,6.32-5.29,10.49-7.39,0-14.77,0-22.16,0-2,3.87-3.01,5.8-5.01,9.66,11.03.06,22.07.15,33.1.27-2.12,4.17-3.17,6.25-5.29,10.38-18.42-.38-36.84-.57-55.27-.55,8.65-16.59,17.32-33.16,25.9-49.78,18.43-.3,36.84-.92,55.25-1.84Z"/>
      <path class="cls-1" d="M322.55,5.44c-1.74,4.2-3.5,8.4-5.28,12.59-11.01.64-22.02,1.21-33.03,1.72-2,4.34-3,6.49-5,10.75,7.38-.16,14.75-.34,22.13-.55-1.74,3.9-3.5,7.78-5.28,11.66-7.38,0-14.75.01-22.13.02-2,4.17-3,6.24-5,10.34,11.02.2,22.03.42,33.05.68-1.74,3.81-3.5,7.62-5.28,11.41-18.4-.86-36.8-1.53-55.21-2,8.86-17.4,17.5-34.9,25.88-52.54,18.41-1.05,36.79-2.42,55.16-4.09Z"/>
      <path class="cls-1" d="M318.41,17.96c1.78-4.2,3.54-8.41,5.28-12.63,16.12-1.52,32.23-3.28,48.29-5.34-7.64,11.89-15.59,23.55-23.91,34.99-4.63,6.25-9.34,12.43-14.15,18.55,8.1.25,16.19.52,24.29.81-1.74,4.39-3.49,8.77-5.27,13.14-16.96-1.24-33.93-2.29-50.92-3.15,13.39-15.4,26.09-31.3,38.12-47.79-7.24.51-14.49.97-21.74,1.41Z"/>
    </g>
  </g>
</svg>