<?xml version="1.0" encoding="UTF-8"?>
<svg id="Layer_2" data-name="Layer 2" xmlns="http://www.w3.org/2000/svg" viewBox="0 0 371.98 75.7">
  <defs>
    <style>
      .cls-1 {
        fill: #f4f4f5;
      }

      .cls-2 {
        fill: #d1d3d4;
      }
    </style>
  </defs>
  <g id="Layer_1-2" data-name="Layer 1">
    <g>
      <path class="cls-2" d="M65.4,35.08c-.04.42-.16.87-.35,1.34-3.26,7.29-6.47,14.59-9.63,21.92-2.67,4.89-8.73,7.22-14.01,7.62-10.99.71-21.98,1.48-32.96,2.32-4.25.56-10-2.05-8.07-7.25,1.6-4.29,3.18-8.63,4.8-12.93,7.36-.13,14.71-.26,22.06-.38-.62,1.55-.93,2.32-1.55,3.88-.52,1.3.64,2.31,2.57,2.25,1.55-.05,2.32-.08,3.86-.13,1.94-.06,3.95-1.14,4.46-2.41,1.25-3.01,1.87-4.51,3.11-7.48.52-1.24-.64-2.25-2.58-2.25-6.13-.01-12.27-.02-18.41-.03-4.17.19-10-2.54-8.07-7.67.78-1.98,1.56-3.96,2.34-5.94,16.41,2.78,33.96,5.18,52.43,7.14Z"/>
      <path class="cls-2" d="M96.47,52.1c-3.62,3.79-7.2,7.62-10.74,11.49-5.51.24-11.02.51-16.52.79-3.44.36-10.17-1.3-8.1-6.27,3.29-7.5,6.63-14.98,10.03-22.43,6.99.7,14.11,1.35,21.34,1.92-2.08,4.36-4.14,8.72-6.18,13.1-.41.88.51,1.58,2.05,1.55,3.25-.06,4.87-.09,8.12-.15Z"/>
      <path class="cls-2" d="M124.61,39.71c-3.8,7.59-7.56,15.21-11.28,22.85-9.36,4.21-18.62,8.57-27.81,13.14,3.58-7.9,7.24-15.77,10.95-23.6,2.18-4.57,4.38-9.14,6.59-13.7,7.08.5,14.27.94,21.55,1.31Z"/>
      <path class="cls-2" d="M185.42,41.31c-2.5,4.81-5.01,9.61-7.52,14.42-2.97,4.32-9.13,5.71-14.05,5.78-11.04.12-22.07.31-33.1.56-6.09.15-9.74-2.43-8.11-5.74,2.7-5.45,5.43-10.89,8.18-16.32,7.16.33,14.41.6,21.74.81-1.56,3.04-3.13,6.09-4.69,9.13-.41.81.51,1.46,2.05,1.45,2.13-.02,3.2-.02,5.34-.04,1.54-.01,3.14-.67,3.55-1.47,1.52-2.94,3.04-5.88,4.57-8.81,7.28.14,14.63.22,22.04.23Z"/>
      <path class="cls-2" d="M241.98,51.59c-2.11,4.18-3.17,6.25-5.28,10.38-18.43-.39-36.85-.57-55.27-.56,3.5-6.7,6.99-13.4,10.48-20.1,15.22-.04,30.18-.36,44.8-.93-.21.4-.42.83-.65,1.28h-22.16c-2.01,3.88-3.01,5.81-5.01,9.66,11.03.06,22.06.15,33.09.27Z"/>
      <path class="cls-2" d="M301.99,52.66c-1.74,3.82-3.5,7.62-5.28,11.42-18.39-.87-36.79-1.53-55.21-2,3.8-7.45,7.55-14.93,11.26-22.42,15.71-.83,30.99-1.94,45.73-3.33-.8,1.77-1.6,3.53-2.41,5.29-7.38,0-14.76,0-22.13.02-2,4.17-3.01,6.24-5.01,10.34,11.02.19,22.04.42,33.05.68Z"/>
      <path class="cls-2" d="M358.21,54.35c-1.74,4.38-3.49,8.77-5.27,13.14-16.96-1.24-33.93-2.3-50.92-3.15,8.85-10.17,17.39-20.56,25.63-31.19,8.27-1.02,16.33-2.14,24.15-3.35-1.23,1.74-2.48,3.47-3.73,5.19-4.63,6.25-9.34,12.43-14.15,18.55,8.1.25,16.19.52,24.29.81Z"/>
    </g>
    <g>
      <path class="cls-1" d="M75.33,14.1c-1.48,3.35-3.21,6.85-4.82,10.33-7.37-.29-14.74-.61-22.11-.96.63-1.42.94-2.13,1.56-3.54.52-1.17-.64-2.23-2.58-2.35-1.55-.09-2.32-.14-3.86-.24-1.94-.13-3.95.75-4.47,1.96-1.24,2.89-1.86,4.35-3.1,7.29-.52,1.23.64,2.3,2.58,2.37,6.14.21,12.28.41,18.43.6,3.15-.04,8.83,1.62,8.44,5.52-18.47-1.96-36.02-4.36-52.43-7.14,2.39-6.03,4.81-12.05,7.27-18.06,2.55-4.93,8.87-6.45,13.99-5.93,10.99,1.12,21.99,2.13,33,3.04,3.43.14,10.12,2.5,8.1,7.11Z"/>
      <path class="cls-1" d="M136.24,16.79c-3.91,7.62-7.79,15.26-11.63,22.92-7.28-.37-14.47-.81-21.55-1.31,2.63-5.41,5.28-10.82,7.96-16.21.41-.83-.51-1.55-2.05-1.6-2.13-.08-3.2-.12-5.33-.19-1.54-.06-3.14.58-3.55,1.42-2.56,5.25-5.1,10.51-7.61,15.78-7.23-.57-14.35-1.22-21.34-1.92,3.24-7.1,6.54-14.18,9.88-21.24,2.82-4.54,9.1-5.76,14.04-5.46,11.02.66,22.04,1.22,33.07,1.67,6.09.24,9.74,2.97,8.11,6.14Z"/>
      <path class="cls-1" d="M167.72,11.67c-5.07,9.71-10.13,19.42-15.16,29.15-7.33-.21-14.58-.48-21.74-.81,4.85-9.62,9.77-19.21,14.74-28.78,7.38.2,14.77.35,22.16.44Z"/>
      <path class="cls-1" d="M200.83,11.71c-5.12,9.88-10.26,19.74-15.41,29.6-7.41-.01-14.76-.09-22.04-.23,5.07-9.78,10.17-19.55,15.28-29.31,7.39.03,14.78.02,22.17-.06Z"/>
      <path class="cls-1" d="M224.2,21.6c-2.01,3.93-3.01,5.89-5.01,9.8,7.38-.06,14.77-.14,22.16-.24-1.89,3.77-2.94,5.85-4.64,9.22-14.62.57-29.58.89-44.8.93,5.16-9.88,10.3-19.78,15.41-29.68,18.43-.3,36.85-.91,55.26-1.84-2.12,4.44-3.18,6.63-5.29,10.99-11.03.34-22.06.61-33.09.82Z"/>
      <path class="cls-1" d="M284.23,19.75c-2,4.34-3,6.49-5,10.75,7.38-.16,14.75-.34,22.13-.55-.95,2.13-1.91,4.26-2.87,6.38-14.74,1.39-30.02,2.5-45.73,3.33,4.96-10,9.84-20.04,14.62-30.12,18.41-1.06,36.8-2.42,55.16-4.1-1.73,4.21-3.49,8.41-5.28,12.59-11,.64-22.01,1.21-33.03,1.72Z"/>
      <path class="cls-1" d="M371.98,0c-6.5,10.1-13.21,20.03-20.18,29.8-7.82,1.21-15.88,2.33-24.15,3.35,4.25-5.47,8.41-11,12.5-16.6-7.25.51-14.49.98-21.74,1.41,1.78-4.2,3.54-8.4,5.27-12.62,16.13-1.52,32.23-3.29,48.3-5.34Z"/>
    </g>
  </g>
</svg>